# xmcd
#
# Track frame offsets:
#	182
#	13935
#	36687
#	59532
#	87682
#	105772
#
# Disc length: 1644 seconds
#
# Revision: 1
# Processed by: cddbd v1.5.2PL0 Copyright (c) Steve Scherf et al.
# Submitted via: audiograbber 1.83.01
#
DISCID=4f066a06
DTITLE=Enigma - M C M X C  aD (Bonus Disc)
DYEAR=1999
DGENRE=Rock
TTITLE0=Sadeness - Part 1 (Meditation Mix)
TTITLE1=Sadeness - Part 1 (Extended Trance Mix)
TTITLE2=Sadeness - Part 1 (Violent US Remix)
TTITLE3=Mea Culpa - Part 2 (Fading Shades Mix)
TTITLE4=Mea Culpa - Part 2 (Orthodox Version)
TTITLE5=Mea Culpa - Part 2 (Catholic Version)
EXTD=
EXTT0=
EXTT1=
EXTT2=
EXTT3=
EXTT4=
EXTT5=
PLAYORDER=
